<?xml version="1.0" encoding="utf-8"?>
<!-- Generator: Adobe Illustrator 25.4.1, SVG Export Plug-In . SVG Version: 6.00 Build 0)  -->
<svg version="1.1" id="Layer_1" xmlns="http://www.w3.org/2000/svg" xmlns:xlink="http://www.w3.org/1999/xlink" x="0px" y="0px"
	 viewBox="0 0 309.3 309.3" style="enable-background:new 0 0 309.3 309.3;" xml:space="preserve">
<style type="text/css">
	.st0{fill:#96C0B7;}
	.st1{fill:#6D9E92;}
	.st2{fill:#FFFFFF;}
</style>
<g>
	<path class="st0" d="M38.7,0h164.2l87,86.7v203.2c0,10.7-8.7,19.3-19.3,19.3H38.7c-10.7,0-19.3-8.6-19.3-19.3V19.3
		C19.3,8.6,28,0,38.7,0z"/>
	<path class="st1" d="M289.7,87h-67.4c-10.7,0-19.3-8.7-19.3-19.3V0.2L289.7,87z"/>
	<g>
		<path class="st2" d="M218.6,136.8h-128c-3.9,0-7.1-3.2-7.1-7.1v0c0-3.9,3.2-7.1,7.1-7.1h128c3.9,0,7.1,3.2,7.1,7.1v0
			C225.7,133.6,222.6,136.8,218.6,136.8z"/>
		<path class="st2" d="M218.6,180.2h-128c-3.9,0-7.1-3.2-7.1-7.1l0,0c0-3.9,3.2-7.1,7.1-7.1h128c3.9,0,7.1,3.2,7.1,7.1l0,0
			C225.7,177,222.6,180.2,218.6,180.2z"/>
		<path class="st2" d="M218.6,223.7h-128c-3.9,0-7.1-3.2-7.1-7.1v0c0-3.9,3.2-7.1,7.1-7.1h128c3.9,0,7.1,3.2,7.1,7.1v0
			C225.7,220.5,222.6,223.7,218.6,223.7z"/>
	</g>
</g>
</svg>
